<svg id="Layer_1" data-name="Layer 1" xmlns="http://www.w3.org/2000/svg" viewBox="0 0 192 192"><defs><style>.cls-1,.cls-3{fill:#9700f9;}.cls-2{fill:#fff;}.cls-3{stroke:#fff;stroke-miterlimit:10;stroke-width:2px;}</style></defs><title>help</title><rect class="cls-1" x="-28.23" y="-32" width="245.86" height="246"/><polygon class="cls-2" points="53.96 124.89 40.36 124.89 48.53 97.07 41.62 97.07 30.26 134.22 16.66 134.22 39.15 58.98 52.76 58.98 45.08 85.38 51.99 85.38 62.9 49.71 76.51 49.71 53.96 124.89"/><polygon class="cls-2" points="78.02 58.94 103.96 59.27 99.92 71.07 88.13 70.92 83.67 85.36 95.52 85.51 91.64 97.15 80.07 97 75.32 112.26 87.94 112.41 83.23 124.87 57.78 124.55 78.02 58.94"/><polygon class="cls-2" points="120.64 124.92 102.35 124.92 102.37 124.92 88.77 124.92 111.26 49.68 124.86 49.68 106.23 113.8 124.1 113.8 120.64 124.92"/><path class="cls-2" d="M150.19,82.76h-13.6L114.1,158h14.62l11.14-39h25l9.82-36.18ZM143,107.83l4-13.93h12l-4.1,13.93Z"/><path class="cls-3" d="M168.72,102.21c-1.43-5.48-3.73-10-11.83-10.63-.89-.15-1.29-.78-1.29-1.81a2.68,2.68,0,0,1,1-2.07c4.27-5.36,4.14-14.47.78-17.32-3.56-3.66-11.21-2.89-12.93,0-3.62,6.46-3.11,13,2.07,18.35,2.33,2.59-1.55,5.43-3.88,3.62a26.94,26.94,0,0,1-5.17-8,12.46,12.46,0,0,1-1.29-5.69l1.29-14.21a5.33,5.33,0,0,0,3.36-1.29c1.3-1.3,1-2.33-1.29-2.07-.51-.87-.17-2.34.26-3.88,2.59-6.72-12.92-6.46-7.24,7-1.81,11.63-6.46,19.64,4.91,33.86l2.59,20.16c6.07.17,12.1-.17,18.09,0L161.8,103c1.5,1.94,2.57,6.31,3.31,12.5Z"/><polygon class="cls-1" points="165.29 112.12 166.58 119.1 168.78 106.05 168 102.17 164.77 103.85 165.29 112.12"/><polygon class="cls-1" points="140.61 114.58 140.61 121.04 157.66 121.04 157.66 112 140.61 114.58"/></svg>