<svg id="Layer_1" data-name="Layer 1" xmlns="http://www.w3.org/2000/svg" viewBox="0 0 741 1242"><defs><style>.cls-1,.cls-3{fill:#9700f9;}.cls-2{fill:#fff;}.cls-3{stroke:#fff;stroke-miterlimit:10;stroke-width:5px;}</style></defs><title>help</title><rect class="cls-1" x="-22" y="-8" width="782" height="1250"/><polygon class="cls-2" points="201.49 704.7 148.85 704.7 180.48 597.04 153.73 597.04 109.8 740.79 57.16 740.79 144.18 449.68 196.82 449.68 167.1 551.81 193.85 551.81 236.09 413.79 288.73 413.79 201.49 704.7"/><polygon class="cls-2" points="294.55 449.53 394.94 450.78 379.3 496.45 333.67 495.88 316.42 551.73 362.26 552.3 347.27 597.35 302.49 596.79 284.14 655.81 332.95 656.42 314.73 704.61 216.26 703.38 294.55 449.53"/><polygon class="cls-2" points="459.48 704.79 388.73 704.79 388.8 704.79 336.16 704.79 423.18 413.68 475.82 413.68 403.73 661.79 472.85 661.79 459.48 704.79"/><path class="cls-2" d="M573.82,541.68H521.18l-87,291.11h56.56l43.11-151h96.89l38-140Zm-27.69,97,15.38-53.89h46.21l-15.83,53.89Z"/><path class="cls-3" d="M645.49,616.94c-5.52-21.2-14.4-38.67-45.77-41.15-3.43-.56-5-3-5-7-.14-2.76,1.24-5.42,4-8,16.51-20.75,16-56,3-67-13.76-14.17-43.36-11.2-50,0-14,25-12.05,50.12,8,71,9,10-6,21-15,14a103.76,103.76,0,0,1-20-31c-3.39-6.19-4.8-13.69-5-22l5-55c4.62-.36,9.07-1.48,13-5,5-5,4-9-5-8-2-3.35-.66-9.05,1-15,10-26-50-25-28,27-7,45-25,76,19,131l10,78c23.48.67,46.81-.66,70,0l14-59c5.82,7.5,9.95,24.41,12.81,48.36Z"/><polygon class="cls-1" points="632.23 655.29 637.23 682.29 645.73 631.79 642.73 616.79 630.23 623.29 632.23 655.29"/><polygon class="cls-1" points="536.73 664.79 536.73 689.79 602.73 689.79 602.73 654.79 536.73 664.79"/></svg>