<svg id="Layer_1" data-name="Layer 1" xmlns="http://www.w3.org/2000/svg" viewBox="0 0 1168.63 531"><defs><style>.cls-1,.cls-4{fill:#9700f9;}.cls-2{fill:#262424;}.cls-3{fill:none;}.cls-4{stroke:#262424;stroke-miterlimit:10;stroke-width:5px;}</style></defs><title>logo-bg</title><rect class="cls-1" x="454.63" width="714" height="531"/><path class="cls-2" d="M170.49,313.69H117.85L149.48,206H122.73L78.8,349.79H26.16l87-291.11h52.64L136.11,160.81h26.74l42.24-138h52.64Z" transform="translate(470.9 34.21)"/><path class="cls-2" d="M262,58.68h100.4L347.3,104.54H301.66L285.11,160.6H331l-14.43,45.23H271.73l-17.61,59.24h48.81l-17.61,48.41H186.83Z" transform="translate(470.9 34.21)"/><path class="cls-2" d="M428.48,313.79H305.16l87-291.11h52.64l-72.1,248.11h69.13Z" transform="translate(470.9 34.21)"/><path class="cls-2" d="M542.82,150.68H490.18l-87,291.11h56.56l43.11-151h96.89l38-140Zm-27.69,97,15.38-53.89h46.21l-15.83,53.89Z" transform="translate(470.9 34.21)"/><path class="cls-3" d="M-434.28,219.79c9-1,10,3,5,8-3.93,3.52-8.38,4.64-13,5l-5,55c.2,8.31,1.61,15.81,5,22a103.76,103.76,0,0,0,20,31c9,7,24-4,15-14-20.05-20.88-22.63-44.56-8-71,6-10,36-14,50,0,13,11,13.51,46.25-3,67-2.76,2.58-4.14,5.24-4,8,0,4,1.57,6.44,5,7,38,3,43,28,49,55l6,27-23,12c-2.87-24.82-7.05-42.33-13-50l-14,59-70-2-10-76c-44-55-26-86-19-131-22-52,38-53,28-27" transform="translate(470.9 34.21)"/><path class="cls-4" d="M616.49,221.94c-5.52-21.2-14.4-38.67-45.77-41.15-3.43-.56-5-3-5-7-.14-2.76,1.24-5.42,4-8,16.51-20.75,16-56,3-67-13.76-14.17-43.36-11.2-50,0-14,25-12.05,50.12,8,71,9,10-6,21-15,14a103.76,103.76,0,0,1-20-31c-3.39-6.19-4.8-13.69-5-22l5-55c4.62-.36,9.07-1.48,13-5,5-5,4-9-5-8-2-3.35-.66-9,1-15,10-26-50-25-28,27-7,45-25,76,19,131l10,78c23.48.67,46.81-.66,70,0l14-59c5.82,7.5,9.95,24.41,12.81,48.36Z" transform="translate(470.9 34.21)"/></svg>