<svg id="Layer_1" data-name="Layer 1" xmlns="http://www.w3.org/2000/svg" viewBox="0 0 663.81 460.95"><defs><style>.cls-1,.cls-3{fill:#9700f9;}.cls-2{fill:#fff;}.cls-3{stroke:#fff;stroke-miterlimit:10;stroke-width:5px;}</style></defs><title>logo-bg</title><rect class="cls-1" x="-16.28" y="-34.21" width="714" height="531"/><polygon class="cls-2" points="170.49 313.69 117.85 313.69 149.48 206.04 122.73 206.04 78.8 349.79 26.16 349.79 113.18 58.68 165.82 58.68 136.1 160.81 162.85 160.81 205.09 22.79 257.73 22.79 170.49 313.69"/><polygon class="cls-2" points="263.55 58.53 363.94 59.78 348.3 105.45 302.67 104.89 285.42 160.73 331.26 161.3 316.27 206.35 271.49 205.79 253.14 264.81 301.95 265.42 283.73 313.61 185.26 312.38 263.55 58.53"/><polygon class="cls-2" points="428.48 313.79 357.73 313.79 357.8 313.79 305.16 313.79 392.18 22.68 444.82 22.68 372.73 270.79 441.85 270.79 428.48 313.79"/><path class="cls-2" d="M542.82,150.68H490.18l-87,291.11h56.56l43.11-151h96.89l38-140Zm-27.69,97,15.38-53.89h46.21l-15.83,53.89Z"/><path class="cls-3" d="M614.49,225.94c-5.52-21.2-14.4-38.67-45.77-41.15-3.43-.56-5-3-5-7-.14-2.76,1.24-5.42,4-8,16.51-20.75,16-56,3-67-13.76-14.17-43.36-11.2-50,0-14,25-12.05,50.12,8,71,9,10-6,21-15,14a103.76,103.76,0,0,1-20-31c-3.39-6.19-4.8-13.69-5-22l5-55c4.62-.36,9.07-1.48,13-5,5-5,4-9-5-8-2-3.35-.66-9.05,1-15,10-26-50-25-28,27-7,45-25,76,19,131l10,78c23.48.67,46.81-.66,70,0l14-59c5.82,7.5,9.95,24.41,12.81,48.36Z"/><polygon class="cls-1" points="601.23 264.29 606.23 291.29 614.73 240.79 611.73 225.79 599.23 232.29 601.23 264.29"/><polygon class="cls-1" points="505.73 273.79 505.73 298.79 571.73 298.79 571.73 263.79 505.73 273.79"/></svg>