<svg id="Layer_1" data-name="Layer 1" xmlns="http://www.w3.org/2000/svg" viewBox="0 0 192 192"><defs><style>.cls-1{fill:#262424;}.cls-2,.cls-3{fill:#9700f9;}.cls-3{stroke:#fff;stroke-miterlimit:10;stroke-width:2px;}</style></defs><title>logo</title><polygon class="cls-1" points="55.96 129.89 42.36 129.89 50.53 102.07 43.62 102.07 32.26 139.22 18.66 139.22 41.15 63.98 54.76 63.98 47.08 90.38 53.99 90.38 64.9 54.71 78.51 54.71 55.96 129.89"/><path class="cls-2" d="M80,64l26,.33-4,11.81L90.16,76,85.7,90.4l11.86.14L93.68,102.2l-11.59-.14-4.75,15.27,12.63.15L85.26,130l-25.48-.31Z"/><path class="cls-2" d="M122.71,130H90.8l22.52-75.32h13.62l-18.66,64.19h17.89Z"/><path class="cls-2" d="M152.19,87.76h-13.6L116.1,163h14.62l11.14-39h25l9.82-36.18ZM145,112.83l4-13.93h12l-4.1,13.93Z"/><path class="cls-3" d="M170.72,107.21c-1.43-5.48-3.73-10-11.83-10.63-.89-.15-1.29-.78-1.29-1.81a2.68,2.68,0,0,1,1-2.07c4.27-5.36,4.14-14.47.78-17.32-3.56-3.66-11.21-2.89-12.93,0-3.62,6.46-3.11,13,2.07,18.35,2.33,2.59-1.55,5.43-3.88,3.62a26.94,26.94,0,0,1-5.17-8,12.46,12.46,0,0,1-1.29-5.69l1.29-14.21a5.33,5.33,0,0,0,3.36-1.29c1.3-1.3,1-2.33-1.29-2.07-.51-.87-.17-2.34.26-3.88,2.59-6.72-12.92-6.46-7.24,7-1.81,11.63-6.46,19.64,4.91,33.86l2.59,20.16c6.07.17,12.1-.17,18.09,0L163.8,108c1.5,1.94,2.57,6.31,3.31,12.5Z"/><polygon class="cls-2" points="167.29 117.12 168.58 124.1 170.78 111.05 170 107.17 166.77 108.85 167.29 117.12"/><polygon class="cls-2" points="142.61 119 142.61 124 159.66 124 159.66 117 142.61 119"/></svg>